<?xml version="1.0" encoding="UTF-8" standalone="no"?>
<!-- Created with Inkscape (http://www.inkscape.org/) -->

<svg
   xmlns:dc="http://purl.org/dc/elements/1.1/"
   xmlns:cc="http://creativecommons.org/ns#"
   xmlns:rdf="http://www.w3.org/1999/02/22-rdf-syntax-ns#"
   xmlns:svg="http://www.w3.org/2000/svg"
   xmlns="http://www.w3.org/2000/svg"
   xmlns:xlink="http://www.w3.org/1999/xlink"
   xmlns:sodipodi="http://sodipodi.sourceforge.net/DTD/sodipodi-0.dtd"
   xmlns:inkscape="http://www.inkscape.org/namespaces/inkscape"
   width="96mm"
   height="56mm"
   viewBox="0 0 340.15749 198.42519"
   id="svg2"
   version="1.1"
   inkscape:version="0.91 r13725"
   style="shape-rendering:crispEdges"
   sodipodi:docname="cartao.svg.2017_11_16_19_12_57.0.svg">
  <defs
     id="defs4">
    <color-profile
       name="Fogra27L-CMYK-Coated-Press"
       xlink:href="/usr/share/color/icc/Fogra27L.icm"
       id="color-profile3336" />
  </defs>
  <sodipodi:namedview
     id="base"
     pagecolor="#ffffff"
     bordercolor="#666666"
     borderopacity="1.0"
     inkscape:pageopacity="0.0"
     inkscape:pageshadow="2"
     inkscape:zoom="2"
     inkscape:cx="153.41626"
     inkscape:cy="106.27114"
     inkscape:document-units="px"
     inkscape:current-layer="layer1"
     showgrid="false"
     inkscape:showpageshadow="false"
     width="96mm"
     showborder="true"
     borderlayer="false"
     inkscape:snap-midpoints="true"
     inkscape:snap-page="true"
     inkscape:object-nodes="true"
     inkscape:window-width="1366"
     inkscape:window-height="692"
     inkscape:window-x="0"
     inkscape:window-y="24"
     inkscape:window-maximized="1"
     inkscape:snap-text-baseline="false" />
  <metadata
     id="metadata7">
    <rdf:RDF>
      <cc:Work
         rdf:about="">
        <dc:format>image/svg+xml</dc:format>
        <dc:type
           rdf:resource="http://purl.org/dc/dcmitype/StillImage" />
        <dc:title />
      </cc:Work>
    </rdf:RDF>
  </metadata>
  <g
     inkscape:label="Camada 1"
     inkscape:groupmode="layer"
     id="layer1"
     transform="translate(0,-853.93701)">
    <path
       style="fill:#616a6f icc-color(Fogra27L-CMYK-Coated-Press, 0.15000001, 0.02, 0, 0.69999999);fill-opacity:1;stroke:#ee5200;stroke-width:0.46678036;stroke-miterlimit:4;stroke-dasharray:none;stroke-opacity:1"
       d="m 0,853.93701 117.22155,0 0,198.42519 -117.22155,0 z"
       id="rect4154"
       inkscape:connector-curvature="0" />
    <path
       id="path4157"
       d="m 117.22155,853.93701 222.93597,0 0,198.42519 -222.93597,0 z"
       style="fill:#111719 icc-color(Fogra27L-CMYK-Coated-Press, 0.2, 0.02, 0, 1);fill-opacity:1;stroke:#ee5200;stroke-width:0.64372283;stroke-miterlimit:4;stroke-dasharray:none;stroke-opacity:1"
       inkscape:connector-curvature="0" />
    <g
       id="g4198">
      <g
         transform="matrix(0.93398697,0,0,1.0706788,142.04166,-19.462578)"
         style="font-style:normal;font-variant:normal;font-weight:normal;font-stretch:normal;font-size:10.80744457px;line-height:1.25;font-family:STIXSizeTwoSym;-inkscape-font-specification:STIXSizeTwoSym;text-align:center;letter-spacing:0px;word-spacing:0px;text-anchor:middle;fill:#000000;fill-opacity:1;stroke:none;stroke-width:0.26458332"
         id="text4049">
        <path
           d="m -117.14731,933.69693 0,1.84345 2.76518,0 0,0.55586 -2.76518,0 0,2.0088 -0.67195,0 0,-4.95693 3.52157,0 0,0.54882 -2.84962,0 z"
           style="font-style:normal;font-variant:normal;font-weight:normal;font-stretch:normal;font-size:7.20496321px;font-family:Arial;-inkscape-font-specification:Arial;text-align:center;letter-spacing:2.56676817px;text-anchor:middle;stroke-width:0.26458332;fill:#11191a icc-color(Fogra27L-CMYK-Coated-Press, 0.2, 0, 0, 0.99710077);fill-opacity:1"
           id="path4236"
           inkscape:connector-curvature="0" />
        <path
           d="m -110.84789,938.10504 0,-4.95693 0.67194,0 0,4.40812 2.50485,0 0,0.54881 -3.17679,0 z"
           style="font-style:normal;font-variant:normal;font-weight:normal;font-stretch:normal;font-size:7.20496321px;font-family:Arial;-inkscape-font-specification:Arial;text-align:center;letter-spacing:2.56676817px;text-anchor:middle;stroke-width:0.26458332;fill:#11191a icc-color(Fogra27L-CMYK-Coated-Press, 0.2, 0, 0, 0.99710077);fill-opacity:1"
           id="path4238"
           inkscape:connector-curvature="0" />
        <path
           d="m -100.75602,938.10504 -0.56641,-1.44943 -2.25858,0 -0.56993,1.44943 -0.69657,0 2.02288,-4.95693 0.76341,0 1.99122,4.95693 -0.68602,0 z m -1.4037,-3.60952 q -0.0563,-0.14072 -0.10906,-0.28496 -0.0492,-0.14424 -0.0879,-0.26033 -0.0387,-0.11962 -0.0669,-0.19701 -0.0246,-0.0809 -0.0281,-0.0985 -0.007,0.0176 -0.0317,0.0985 -0.0246,0.0809 -0.0669,0.20052 -0.0387,0.11962 -0.0915,0.26386 -0.0493,0.14424 -0.10203,0.28496 l -0.63325,1.62886 1.85401,0 -0.63676,-1.6359 z m -0.77749,-1.77309 0,-0.0704 0.76342,-0.79508 0.72823,0 0,0.10202 -1.09059,0.76342 -0.40106,0 z"
           style="font-style:normal;font-variant:normal;font-weight:normal;font-stretch:normal;font-size:7.20496321px;font-family:Arial;-inkscape-font-specification:Arial;text-align:center;letter-spacing:2.56676817px;text-anchor:middle;stroke-width:0.26458332;fill:#11191a icc-color(Fogra27L-CMYK-Coated-Press, 0.2, 0, 0, 0.99710077);fill-opacity:1"
           id="path4240"
           inkscape:connector-curvature="0" />
        <path
           d="m -94.73101,938.10504 -0.696573,0 -2.022878,-4.95693 0.707128,0 1.372038,3.48991 q 0.05277,0.15831 0.105542,0.31662 0.05277,0.15479 0.09499,0.27793 0.04925,0.14424 0.09499,0.28144 0.04222,-0.13017 0.09147,-0.27441 0.04222,-0.12313 0.09147,-0.27792 0.05277,-0.1548 0.112578,-0.32366 l 1.365002,-3.48991 0.707128,0 -2.022878,4.95693 z"
           style="font-style:normal;font-variant:normal;font-weight:normal;font-stretch:normal;font-size:7.20496321px;font-family:Arial;-inkscape-font-specification:Arial;text-align:center;letter-spacing:2.56676817px;text-anchor:middle;stroke-width:0.26458332;fill:#11191a icc-color(Fogra27L-CMYK-Coated-Press, 0.2, 0, 0, 0.99710077);fill-opacity:1"
           id="path4242"
           inkscape:connector-curvature="0" />
        <path
           d="m -89.437755,938.10504 0,-4.95693 0.671947,0 0,4.95693 -0.671947,0 z"
           style="font-style:normal;font-variant:normal;font-weight:normal;font-stretch:normal;font-size:7.20496321px;font-family:Arial;-inkscape-font-specification:Arial;text-align:center;letter-spacing:2.56676817px;text-anchor:middle;stroke-width:0.26458332;fill:#11191a icc-color(Fogra27L-CMYK-Coated-Press, 0.2, 0, 0, 0.99710077);fill-opacity:1"
           id="path4244"
           inkscape:connector-curvature="0" />
        <path
           d="m -81.432082,938.10504 -0.566406,-1.44943 -2.258587,0 -0.569924,1.44943 -0.696573,0 2.022877,-4.95693 0.763417,0 1.991215,4.95693 -0.686019,0 z m -1.403701,-3.60952 q -0.05629,-0.14072 -0.10906,-0.28496 -0.04925,-0.14424 -0.08795,-0.26033 -0.0387,-0.11962 -0.06684,-0.19701 -0.02463,-0.0809 -0.02814,-0.0985 -0.007,0.0176 -0.03166,0.0985 -0.02463,0.0809 -0.06684,0.20052 -0.0387,0.11962 -0.09147,0.26386 -0.04925,0.14424 -0.102023,0.28496 l -0.633249,1.62886 1.854011,0 -0.636766,-1.6359 z"
           style="font-style:normal;font-variant:normal;font-weight:normal;font-stretch:normal;font-size:7.20496321px;font-family:Arial;-inkscape-font-specification:Arial;text-align:center;letter-spacing:2.56676817px;text-anchor:middle;stroke-width:0.26458332;fill:#11191a icc-color(Fogra27L-CMYK-Coated-Press, 0.2, 0, 0, 0.99710077);fill-opacity:1"
           id="path4246"
           inkscape:connector-curvature="0" />
        <path
           d="m -73.002135,938.10504 0,-4.95693 3.760793,0 0,0.54882 -3.088846,0 0,1.59015 2.877763,0 0,0.54178 -2.877763,0 0,1.72737 3.233086,0 0,0.54881 -3.905033,0 z"
           style="letter-spacing:2.56676817px;fill:#c7d0d4 icc-color(Fogra27L-CMYK-Coated-Press, 0.2, 0.1, 0.1, 0.08);fill-opacity:1"
           id="path4248"
           inkscape:connector-curvature="0" />
        <path
           d="m -61.408054,938.10504 0,-3.30696 q 0,-0.17942 0.0035,-0.36588 0.0035,-0.18646 0.01055,-0.34125 0.007,-0.17942 0.01759,-0.34829 -0.04925,0.17942 -0.102023,0.35532 -0.04574,0.15128 -0.102023,0.32366 -0.05277,0.16887 -0.105542,0.30608 l -1.280569,3.37732 -0.471419,0 -1.29816,-3.37732 q -0.02111,-0.0528 -0.04573,-0.12314 -0.02111,-0.0704 -0.04925,-0.14775 -0.02463,-0.0809 -0.05277,-0.16183 -0.02463,-0.0844 -0.04925,-0.16535 -0.05981,-0.18646 -0.116095,-0.38699 0.0035,0.19701 0.01055,0.3905 0.007,0.16535 0.01055,0.34829 0.0035,0.17942 0.0035,0.31663 l 0,3.30696 -0.598068,0 0,-4.95693 0.88303,0 1.319268,3.43713 q 0.02463,0.0704 0.05981,0.18294 0.03518,0.10906 0.06684,0.22516 0.03166,0.11609 0.05629,0.22164 0.02814,0.10202 0.0387,0.15831 0.01055,-0.0563 0.0387,-0.16183 0.02814,-0.10554 0.06332,-0.22164 0.0387,-0.1161 0.07388,-0.22515 0.03518,-0.10906 0.06332,-0.17943 l 1.294641,-3.43713 0.861922,0 0,4.95693 -0.605104,0 z"
           style="letter-spacing:2.56676817px;fill:#c7d0d4 icc-color(Fogra27L-CMYK-Coated-Press, 0.2, 0.1, 0.1, 0.08);fill-opacity:1"
           id="path4250"
           inkscape:connector-curvature="0" />
        <path
           d="m -57.047084,938.10504 0,-4.95693 3.760794,0 0,0.54882 -3.088847,0 0,1.59015 2.877764,0 0,0.54178 -2.877764,0 0,1.72737 3.233087,0 0,0.54881 -3.905034,0 z"
           style="letter-spacing:2.56676817px;fill:#c7d0d4 icc-color(Fogra27L-CMYK-Coated-Press, 0.2, 0.1, 0.1, 0.08);fill-opacity:1"
           id="path4252"
           inkscape:connector-curvature="0" />
        <path
           d="m -46.163648,938.10504 -1.287606,-2.05806 -1.544423,0 0,2.05806 -0.671948,0 0,-4.95693 2.332467,0 q 0.422165,0 0.745826,0.0985 0.327178,0.095 0.548815,0.27792 0.221637,0.18294 0.337733,0.44679 0.116096,0.26386 0.116096,0.59455 0,0.23571 -0.07036,0.46439 -0.06684,0.22867 -0.214601,0.41864 -0.147758,0.18998 -0.376432,0.32718 -0.228673,0.13721 -0.548815,0.1935 l 1.407219,2.13545 -0.77397,0 z m -0.09851,-3.53212 q 0,-0.22515 -0.0774,-0.3905 -0.0774,-0.16535 -0.225155,-0.27441 -0.147758,-0.11258 -0.358841,-0.16535 -0.211083,-0.0563 -0.478454,-0.0563 l -1.593676,0 0,1.82939 1.62182,0 q 0.28848,0 0.499563,-0.0704 0.211083,-0.0739 0.344769,-0.20053 0.137203,-0.12665 0.200528,-0.29904 0.06684,-0.17238 0.06684,-0.37291 z"
           style="letter-spacing:2.56676817px;fill:#c7d0d4 icc-color(Fogra27L-CMYK-Coated-Press, 0.2, 0.1, 0.1, 0.08);fill-opacity:1"
           id="path4254"
           inkscape:connector-curvature="0" />
        <path
           d="m -39.878305,936.0505 0,2.05454 -0.66843,0 0,-2.05454 -1.906782,-2.90239 0.73879,0 1.509243,2.36061 1.502207,-2.36061 0.73879,0 -1.913818,2.90239 z"
           style="letter-spacing:2.56676817px;fill:#c7d0d4 icc-color(Fogra27L-CMYK-Coated-Press, 0.2, 0.1, 0.1, 0.08);fill-opacity:1"
           id="path4256"
           inkscape:connector-curvature="0" />
      </g>
      <g
         transform="matrix(0.93398697,0,0,1.0706788,142.04166,-19.462578)"
         style="font-style:normal;font-variant:normal;font-weight:bold;font-stretch:normal;font-size:71.41481781px;line-height:1.25;font-family:'Arial Black';-inkscape-font-specification:'Arial Black, Bold';text-align:center;letter-spacing:0px;word-spacing:0px;text-anchor:middle;fill:#11191a icc-color(Fogra27L-CMYK-Coated-Press, 0.2, 0, 0, 0.99710077);fill-opacity:1;stroke:none;stroke-width:1.74834728"
         id="text4053">
        <path
           d="m -117.18094,878.70907 36.230462,0 0,10.14732 -22.805322,0 0,9.694 21.445372,0 0,10.14733 -21.445372,0 0,22.07303 -13.42514,0 0,-52.06168 z"
           style="font-style:normal;font-variant:normal;font-weight:bold;font-stretch:normal;font-family:'Arial Black';-inkscape-font-specification:'Arial Black, Bold';text-align:center;letter-spacing:0px;text-anchor:middle;stroke-width:1.74834728;fill:#11191a icc-color(Fogra27L-CMYK-Coated-Press, 0.2, 0, 0, 0.99710077);fill-opacity:1"
           id="path4259"
           inkscape:connector-curvature="0" />
      </g>
      <g
         transform="matrix(0.93398697,0,0,1.0706788,142.04166,-19.462578)"
         style="font-style:normal;font-variant:normal;font-weight:bold;font-stretch:normal;font-size:71.41481781px;line-height:1.25;font-family:'Arial Black';-inkscape-font-specification:'Arial Black, Bold';text-align:center;letter-spacing:0px;word-spacing:0px;text-anchor:middle;fill:#c7d0d4 icc-color(Fogra27L-CMYK-Coated-Press, 0.2, 0.1, 0.1, 0.08);fill-opacity:1;stroke:none;stroke-width:1.74834728"
         id="text4057">
        <path
           d="m -77.733713,878.70907 36.230467,0 0,10.14732 -22.805318,0 0,9.694 21.445367,0 0,10.14733 -21.445367,0 0,11.92571 23.572469,0 0,10.14732 -36.997618,0 0,-52.06168 z"
           style="font-style:normal;font-variant:normal;font-weight:bold;font-stretch:normal;font-family:'Arial Black';-inkscape-font-specification:'Arial Black, Bold';text-align:center;letter-spacing:0px;text-anchor:middle;fill:#c7d0d4 icc-color(Fogra27L-CMYK-Coated-Press, 0.2, 0.1, 0.1, 0.08);stroke-width:1.74834728;fill-opacity:1"
           id="path4262"
           inkscape:connector-curvature="0" />
      </g>
    </g>
    <flowRoot
       xml:space="preserve"
       id="flowRoot4214"
       style="fill:black;stroke:none;stroke-opacity:1;stroke-width:1px;stroke-linejoin:miter;stroke-linecap:butt;fill-opacity:1;font-family:sans-serif;font-style:normal;font-weight:normal;font-size:40px;line-height:125%;letter-spacing:0px;word-spacing:0px"><flowRegion
         id="flowRegion4216"><rect
           id="rect4218"
           width="130"
           height="111.5"
           x="-234.5"
           y="57.425201" /></flowRegion><flowPara
         id="flowPara4220" /></flowRoot>    <text
       xml:space="preserve"
       style="font-style:normal;font-weight:normal;font-size:40px;line-height:125%;font-family:sans-serif;letter-spacing:0px;word-spacing:0px;fill:#000000;fill-opacity:1;stroke:none;stroke-width:1px;stroke-linecap:butt;stroke-linejoin:miter;stroke-opacity:1"
       x="141"
       y="916.86218"
       id="text4264"
       sodipodi:linespacing="125%"><tspan
         sodipodi:role="line"
         id="tspan4266"
         x="141"
         y="916.86218" /></text>
    <text
       xml:space="preserve"
       style="font-style:normal;font-weight:normal;font-size:40px;line-height:50%;font-family:sans-serif;letter-spacing:0px;word-spacing:0px;fill:#000000;fill-opacity:1;stroke:none;stroke-width:1px;stroke-linecap:butt;stroke-linejoin:miter;stroke-opacity:1"
       x="151.03343"
       y="899.612"
       id="text4268"
       sodipodi:linespacing="50%"><tspan
         sodipodi:role="line"
         id="tspan4270"
         x="151.03343"
         y="899.612"
         style="font-style:italic;font-variant:normal;font-weight:normal;font-stretch:normal;font-size:25.00000191px;line-height:50%;font-family:FreeSerif;-inkscape-font-specification:'FreeSerif, Italic';text-align:start;writing-mode:lr-tb;text-anchor:start;fill:#cccccc">Pisicanalista</tspan></text>
    <text
       sodipodi:linespacing="20%"
       id="text4272"
       y="923.59692"
       x="159.46489"
       style="font-style:italic;font-variant:normal;font-weight:normal;font-stretch:normal;font-size:18.75000191px;line-height:20.0000003%;font-family:FreeSerif;-inkscape-font-specification:'FreeSerif, Italic';text-align:start;letter-spacing:0px;word-spacing:0px;writing-mode:lr-tb;text-anchor:start;fill:#000000;fill-opacity:1;stroke:none;stroke-width:1px;stroke-linecap:butt;stroke-linejoin:miter;stroke-opacity:1"
       xml:space="preserve"><tspan
         style="font-style:italic;font-variant:normal;font-weight:normal;font-stretch:normal;font-size:18.75000191px;line-height:20.0000003%;font-family:FreeSerif;-inkscape-font-specification:'FreeSerif, Italic';text-align:start;writing-mode:lr-tb;text-anchor:start;fill:#cccccc"
         y="923.59692"
         x="159.46489"
         id="tspan4274"
         sodipodi:role="line">Flávia Emery</tspan></text>
    <text
       xml:space="preserve"
       style="font-style:italic;font-variant:normal;font-weight:normal;font-stretch:normal;font-size:16.25000191px;line-height:20.0000003%;font-family:FreeSerif;-inkscape-font-specification:'FreeSerif, Italic';text-align:start;letter-spacing:0px;word-spacing:0px;writing-mode:lr-tb;text-anchor:start;fill:#000000;fill-opacity:1;stroke:none;stroke-width:1px;stroke-linecap:butt;stroke-linejoin:miter;stroke-opacity:1"
       x="125.00017"
       y="949.41187"
       id="text4276"
       sodipodi:linespacing="20%"><tspan
         sodipodi:role="line"
         id="tspan4278"
         x="125.00017"
         y="949.41187"
         style="font-style:italic;font-variant:normal;font-weight:normal;font-stretch:normal;font-size:16.25000191px;line-height:20.0000003%;font-family:FreeSerif;-inkscape-font-specification:'FreeSerif, Italic';text-align:start;writing-mode:lr-tb;text-anchor:start;fill:#cccccc">cel/watsapp.: 31 97170-5150</tspan></text>
    <text
       sodipodi:linespacing="20%"
       id="text4280"
       y="972.13428"
       x="141.87694"
       style="font-style:italic;font-variant:normal;font-weight:normal;font-stretch:normal;font-size:12.50000095px;line-height:20.0000003%;font-family:FreeSerif;-inkscape-font-specification:'FreeSerif, Italic';text-align:start;letter-spacing:0px;word-spacing:0px;writing-mode:lr-tb;text-anchor:start;fill:#000000;fill-opacity:1;stroke:none;stroke-width:1px;stroke-linecap:butt;stroke-linejoin:miter;stroke-opacity:1"
       xml:space="preserve"><tspan
         style="font-style:italic;font-variant:normal;font-weight:normal;font-stretch:normal;font-size:12.50000095px;line-height:20.0000003%;font-family:FreeSerif;-inkscape-font-specification:'FreeSerif, Italic';text-align:start;writing-mode:lr-tb;text-anchor:start;fill:#cccccc"
         y="972.13428"
         x="141.87694"
         id="tspan4282"
         sodipodi:role="line">e-m@il: flaviaemery@gmail.com</tspan></text>
    <text
       xml:space="preserve"
       style="font-style:italic;font-variant:normal;font-weight:normal;font-stretch:normal;font-size:10.00000095px;line-height:10.00000015%;font-family:FreeSerif;-inkscape-font-specification:'FreeSerif, Italic';text-align:start;letter-spacing:0px;word-spacing:0px;writing-mode:lr-tb;text-anchor:start;fill:#000000;fill-opacity:1;stroke:none;stroke-width:1px;stroke-linecap:butt;stroke-linejoin:miter;stroke-opacity:1"
       x="136.27219"
       y="992.39294"
       id="text3370"
       sodipodi:linespacing="10%"><tspan
         sodipodi:role="line"
         id="tspan3372"
         x="136.27219"
         y="992.39294"
         style="font-style:italic;font-variant:normal;font-weight:normal;font-stretch:normal;font-size:10.00000095px;line-height:10.00000015%;font-family:FreeSerif;-inkscape-font-specification:'FreeSerif, Italic';text-align:start;writing-mode:lr-tb;text-anchor:start;fill:#cccccc">site: https://flaviaemery.github.io/psicanalise/</tspan></text>
    <text
       sodipodi:linespacing="10%"
       id="text3374"
       y="1011.1121"
       x="120.26971"
       style="font-style:italic;font-variant:normal;font-weight:normal;font-stretch:normal;font-size:8.50000095px;line-height:10.00000015%;font-family:FreeSerif;-inkscape-font-specification:'FreeSerif, Italic';text-align:start;letter-spacing:0px;word-spacing:0px;writing-mode:lr-tb;text-anchor:start;fill:#000000;fill-opacity:1;stroke:none;stroke-width:1px;stroke-linecap:butt;stroke-linejoin:miter;stroke-opacity:1"
       xml:space="preserve"><tspan
         style="font-style:italic;font-variant:normal;font-weight:normal;font-stretch:normal;font-size:8.50000095px;line-height:10.00000015%;font-family:FreeSerif;-inkscape-font-specification:'FreeSerif, Italic';text-align:start;writing-mode:lr-tb;text-anchor:start;fill:#cccccc"
         y="1011.1121"
         x="120.26971"
         id="tspan3376"
         sodipodi:role="line">face: https://www.facebook.com/flaviaemerypsicanalista/</tspan></text>
  </g>
  <g
     inkscape:groupmode="layer"
     id="layer2"
     inkscape:label="sangria e margem de segurança"
     sodipodi:insensitive="true">
    <path
       style="color:#000000;font-style:normal;font-variant:normal;font-weight:normal;font-stretch:normal;font-size:medium;line-height:normal;font-family:sans-serif;text-indent:0;text-align:start;text-decoration:none;text-decoration-line:none;text-decoration-style:solid;text-decoration-color:#000000;letter-spacing:normal;word-spacing:normal;text-transform:none;direction:ltr;block-progression:tb;writing-mode:lr-tb;baseline-shift:baseline;text-anchor:start;white-space:normal;clip-rule:nonzero;display:inline;overflow:visible;visibility:visible;opacity:1;isolation:auto;mix-blend-mode:normal;color-interpolation:sRGB;color-interpolation-filters:linearRGB;solid-color:#000000;solid-opacity:1;fill:#ee5200;fill-opacity:1;fill-rule:nonzero;stroke:none;stroke-width:0.50000006;stroke-linecap:butt;stroke-linejoin:miter;stroke-miterlimit:4;stroke-dasharray:none;stroke-dashoffset:0;stroke-opacity:1;color-rendering:auto;image-rendering:auto;shape-rendering:auto;text-rendering:auto;enable-background:accumulate"
       d="m 10.629922,10.629907 0,0.564221 0,176.601142 318.897678,0 0,-177.165363 -318.897678,0 z m 1.258406,1.128442 316.380862,0 0,174.908481 -316.380862,0 0,-174.908481 z"
       id="rect3339"
       inkscape:connector-curvature="0" />
    <path
       inkscape:connector-curvature="0"
       id="path4152"
       d="m 21.259846,21.259829 0,0.496514 0,155.409007 297.637824,0 0,-155.905521 -297.637824,0 z m 1.174512,0.993028 295.288802,0 0,153.919473 -295.288802,0 0,-153.919473 z"
       style="color:#000000;font-style:normal;font-variant:normal;font-weight:normal;font-stretch:normal;font-size:medium;line-height:normal;font-family:sans-serif;text-indent:0;text-align:start;text-decoration:none;text-decoration-line:none;text-decoration-style:solid;text-decoration-color:#000000;letter-spacing:normal;word-spacing:normal;text-transform:none;direction:ltr;block-progression:tb;writing-mode:lr-tb;baseline-shift:baseline;text-anchor:start;white-space:normal;clip-rule:nonzero;display:inline;overflow:visible;visibility:visible;opacity:1;isolation:auto;mix-blend-mode:normal;color-interpolation:sRGB;color-interpolation-filters:linearRGB;solid-color:#000000;solid-opacity:1;fill:#0000ff;fill-opacity:1;fill-rule:nonzero;stroke:none;stroke-width:0.50000006;stroke-linecap:butt;stroke-linejoin:miter;stroke-miterlimit:4;stroke-dasharray:none;stroke-dashoffset:0;stroke-opacity:1;color-rendering:auto;image-rendering:auto;shape-rendering:auto;text-rendering:auto;enable-background:accumulate" />
  </g>
</svg>
